<?xml version="1.0" standalone="no"?>
<!DOCTYPE svg PUBLIC "-//W3C//DTD SVG 20010904//EN"
 "http://www.w3.org/TR/2001/REC-SVG-20010904/DTD/svg10.dtd">
<svg version="1.0" xmlns="http://www.w3.org/2000/svg"
 width="160.000000pt" height="160.000000pt" viewBox="0 0 160.000000 160.000000"
 preserveAspectRatio="xMidYMid meet">
<metadata>
Created by potrace 1.11, written by Peter Selinger 2001-2013
</metadata>
<g transform="translate(0.000000,160.000000) scale(0.100000,-0.100000)"
fill="#000000" stroke="none">
<path d="M264 1130 c-7 -38 -7 -57 1 -62 11 -8 18 34 13 85 -3 28 -5 25 -14
-23z"/>
<path d="M507 1153 c-3 -16 -1 -33 3 -38 5 -6 5 -17 0 -25 -9 -15 4 -30 28
-30 14 0 16 46 2 55 -5 3 -10 19 -10 36 0 37 -16 38 -23 2z"/>
<path d="M1190 1125 c0 -14 5 -25 10 -25 6 0 10 7 10 15 0 12 20 15 118 15
l117 0 -1 -82 0 -83 -117 -3 -117 -3 0 56 c0 30 -4 55 -10 55 -6 0 -10 -28
-10 -65 l0 -66 138 3 137 3 0 100 0 100 -137 3 -138 3 0 -26z"/>
<path d="M322 1085 c0 -16 2 -22 5 -12 2 9 2 23 0 30 -3 6 -5 -1 -5 -18z"/>
<path d="M927 936 c-8 -8 -43 -66 -78 -130 -62 -112 -80 -135 -77 -98 1 9 0
26 0 37 -2 17 -5 16 -22 -10 -11 -16 -25 -48 -31 -69 -7 -27 -13 -35 -19 -26
-12 19 6 62 46 108 29 34 34 48 34 91 0 29 -5 51 -11 51 -5 0 -7 5 -4 10 10
15 -4 12 -44 -11 -32 -19 -101 -107 -101 -130 0 -5 -4 -9 -10 -9 -14 0 -13
-27 2 -32 8 -3 8 -9 0 -24 -10 -17 -11 -17 -12 -1 0 9 -4 17 -10 17 -5 0 -10
-8 -10 -18 0 -10 -5 -23 -11 -29 -8 -8 -8 -17 0 -31 9 -17 8 -23 -6 -31 -13
-8 -14 -10 -3 -11 11 0 11 -3 2 -12 -14 -14 -16 -32 -2 -23 5 3 7 -8 5 -27 -6
-41 4 -90 16 -83 5 4 6 -1 3 -9 -6 -16 12 -48 65 -116 19 -25 25 -36 13 -26
-12 11 -37 42 -56 70 -93 142 -94 318 -1 456 l34 50 -42 0 c-23 0 -59 -4 -79
-9 -22 -5 -36 -5 -32 0 3 5 -95 9 -230 9 l-236 0 0 -350 0 -350 103 -1 c56 0
147 -2 202 -3 328 -7 359 -9 320 -16 l-40 -7 40 -3 c33 -3 29 -5 -25 -10 -36
-4 117 -7 340 -7 223 0 393 2 378 6 -17 4 -25 10 -20 17 4 7 53 13 127 16 66
2 126 7 132 11 9 6 12 95 10 350 l-2 342 -79 3 c-69 3 -81 0 -98 -18 -29 -31
-74 -21 -90 19 -1 4 -17 6 -35 4 l-32 -5 23 -32 c26 -34 50 -79 60 -112 5 -15
2 -21 -10 -21 -11 0 -14 7 -10 23 4 14 0 29 -10 38 -8 9 -13 16 -9 16 3 0 0 6
-7 14 -14 15 -38 10 -38 -7 0 -6 10 -20 23 -32 13 -11 17 -16 10 -11 -7 5 -13
5 -13 1 0 -5 -14 11 -31 34 -17 24 -28 45 -25 49 3 3 6 0 6 -7 0 -7 5 -9 12
-5 7 4 8 3 4 -4 -4 -7 -2 -12 3 -12 18 0 13 18 -11 40 -24 22 -44 27 -32 8 4
-6 3 -8 -4 -5 -5 4 -8 16 -5 27 4 14 0 20 -10 20 -9 0 -20 8 -26 17 -5 10 -13
15 -17 10 -4 -4 19 -58 50 -119 l58 -113 -44 41 c-128 120 -225 207 -240 215
-11 6 -21 4 -31 -5z m-227 -100 c0 -3 -4 -8 -10 -11 -5 -3 -10 -1 -10 4 0 6 5
11 10 11 6 0 10 -2 10 -4z m597 -165 c3 -22 9 -39 12 -37 4 3 6 -12 5 -32 -1
-20 3 -43 9 -49 6 -9 6 -13 -1 -13 -6 0 -9 -7 -6 -15 4 -8 -1 -17 -10 -21 -9
-3 -16 -11 -15 -18 4 -30 -2 -57 -11 -51 -5 3 -7 0 -4 -8 3 -8 -2 -17 -10 -20
-9 -4 -13 -13 -10 -22 4 -10 0 -15 -11 -15 -11 0 -15 -5 -11 -15 3 -8 2 -15
-3 -15 -5 0 -27 -18 -49 -39 -22 -22 -43 -36 -47 -33 -3 4 -10 0 -14 -7 -5 -8
-17 -14 -27 -15 -11 -2 -32 -8 -49 -15 -37 -16 -178 -18 -183 -3 -2 6 -10 8
-18 5 -8 -3 -23 2 -34 12 -10 9 -24 14 -29 10 -6 -3 -11 1 -11 10 0 9 -5 15
-12 13 -7 -3 -30 13 -52 34 -22 21 -44 38 -49 38 -4 0 -5 5 -2 11 4 5 -2 18
-14 28 -11 10 -18 21 -14 25 3 3 2 6 -4 6 -5 0 -10 6 -10 13 -1 6 -4 28 -7 47
-5 27 -4 29 2 10 32 -92 107 -176 195 -216 53 -25 74 -29 147 -29 73 1 93 5
143 30 162 80 242 274 181 440 -5 15 -4 17 5 9 7 -6 15 -30 18 -53z m-187 19
c0 -5 -2 -10 -4 -10 -3 0 -8 5 -11 10 -3 6 -1 10 4 10 6 0 11 -4 11 -10z
m-510 -40 c0 -5 -4 -10 -10 -10 -5 0 -10 5 -10 10 0 6 5 10 10 10 6 0 10 -4
10 -10z m-3 -122 c-3 -7 -5 -2 -5 12 0 14 2 19 5 13 2 -7 2 -19 0 -25z m573 7
c15 -18 6 -46 -26 -85 -36 -42 -55 -31 -37 22 10 29 11 44 3 53 -8 10 -7 14 2
18 24 10 46 7 58 -8z m-410 -85 c0 -5 -2 -10 -4 -10 -3 0 -8 5 -11 10 -3 6 -1
10 4 10 6 0 11 -4 11 -10z m-33 -296 c-3 -3 -12 -4 -19 -1 -8 3 -5 6 6 6 11 1
17 -2 13 -5z"/>
<path d="M1498 123 c6 -2 18 -2 25 0 6 3 1 5 -13 5 -14 0 -19 -2 -12 -5z"/>
</g>
</svg>
